<?xml version="1.0" standalone="no"?>
<!DOCTYPE svg PUBLIC "-//W3C//DTD SVG 20010904//EN"
 "http://www.w3.org/TR/2001/REC-SVG-20010904/DTD/svg10.dtd">
<svg version="1.0" xmlns="http://www.w3.org/2000/svg"
 width="361.000000pt" height="139.000000pt" viewBox="0 0 361.000000 139.000000"
 preserveAspectRatio="xMidYMid meet">
<metadata>
Created by potrace 1.15, written by Peter Selinger 2001-2017
</metadata>
<g transform="translate(0.000000,139.000000) scale(0.100000,-0.100000)"
fill="#000000" stroke="none">
<path d="M0 695 l0 -695 1035 0 c1028 1 1035 1 1023 20 -12 18 -25 20 -143 21
-129 2 -129 2 -46 9 46 4 111 4 145 0 33 -4 69 -5 79 -2 10 3 29 -1 42 -8 23
-12 23 -14 7 -26 -14 -11 16 -13 186 -14 184 0 203 2 209 18 9 22 42 52 60 52
17 0 17 -11 -2 -36 -8 -10 -15 -22 -15 -26 0 -5 232 -8 515 -8 l515 0 0 695 0
695 -1197 -1 c-659 -1 -1188 -4 -1175 -6 29 -6 19 -23 -14 -23 -13 0 -24 -4
-24 -10 0 -5 -9 -10 -21 -10 -13 0 -19 -5 -16 -13 3 -7 -3 -18 -12 -24 -10 -6
-17 -22 -16 -35 1 -19 8 -23 36 -26 31 -2 32 -1 16 12 -20 16 -8 30 17 20 9
-3 23 -1 31 6 8 6 18 9 24 6 5 -3 22 -1 38 6 15 7 48 13 73 13 131 2 150 5
150 21 0 11 5 14 16 10 9 -3 21 -6 27 -6 8 0 7 -4 -2 -9 -11 -7 -9 -10 9 -16
12 -4 25 -3 29 2 8 13 92 45 99 39 3 -3 11 -1 18 5 8 6 20 9 28 6 8 -3 16 -2
18 4 2 5 49 10 105 12 56 1 99 -1 97 -5 -3 -4 22 -5 55 -1 44 4 61 3 61 -6 0
-7 -4 -10 -9 -6 -5 3 -12 1 -15 -4 -7 -11 27 -21 72 -21 22 0 32 5 32 15 0 19
-20 17 210 19 150 2 200 0 217 -11 24 -14 62 -9 98 12 12 7 45 11 80 9 33 -2
134 -4 225 -4 190 -2 210 -5 210 -31 0 -10 -4 -19 -10 -19 -5 0 -7 -7 -4 -15
6 -15 -7 -21 -20 -8 -12 12 -50 9 -65 -5 -14 -14 -99 -8 -132 8 -8 5 -22 4
-30 -1 -7 -5 -25 -9 -39 -9 -48 -1 7 -28 57 -28 82 0 79 -34 -5 -62 -24 -7
-47 -20 -51 -28 -10 -18 -121 -23 -121 -5 0 20 -20 25 -27 8 -3 -10 0 -21 8
-26 17 -10 -1 -13 -73 -9 -42 2 -48 -1 -48 -18 0 -17 9 -20 63 -24 34 -3 72 0
85 5 16 7 26 7 33 0 14 -14 62 5 56 21 -3 7 9 10 34 8 48 -5 94 15 109 47 8
18 14 21 19 12 6 -10 10 -9 14 3 4 9 2 16 -3 16 -19 0 -10 17 18 30 15 8 35
21 44 28 11 9 27 12 45 8 43 -11 61 -9 85 9 l23 17 -25 -7 c-14 -4 -30 -10
-37 -12 -7 -3 -10 3 -6 16 4 14 18 23 51 30 49 10 66 6 42 -9 -11 -7 -7 -10
16 -10 27 0 32 -4 39 -32 4 -18 9 -27 12 -20 6 14 43 16 43 2 0 -5 -6 -10 -12
-11 -7 -1 -2 -5 12 -9 l25 -8 -25 -1 c-14 -1 -43 -10 -65 -21 -22 -11 -47 -17
-57 -14 -21 6 -36 -22 -20 -38 11 -11 -12 -74 -35 -93 -6 -5 -13 -19 -16 -30
-3 -11 -5 -3 -6 19 -1 30 -4 37 -17 32 -9 -3 -18 -6 -21 -6 -3 0 2 -11 11 -25
13 -20 14 -28 4 -45 -15 -23 -29 -25 -46 -8 -9 9 -12 8 -12 -5 0 -15 13 -17
98 -18 77 0 91 -3 69 -11 l-27 -10 21 -29 c12 -17 20 -31 18 -33 -8 -6 -128
-25 -194 -31 -43 -3 -62 -2 -50 4 15 6 10 8 -22 7 -51 -1 -54 -8 -10 -23 34
-12 138 -8 196 7 19 5 37 7 41 5 5 -3 27 2 50 10 23 8 47 12 53 8 6 -3 7 -1 3
5 -5 8 6 12 35 12 36 0 41 -3 36 -19 -3 -14 -1 -18 9 -14 9 3 14 -2 14 -15 0
-11 -6 -23 -12 -25 -10 -4 -10 -6 0 -6 6 -1 12 -8 12 -17 0 -11 -6 -13 -19 -9
-15 5 -24 -1 -36 -24 -16 -31 -52 -58 -63 -46 -4 3 0 10 8 15 18 11 14 14 -30
26 -43 11 -90 7 -90 -9 1 -16 83 -67 109 -67 14 0 21 -6 21 -20 0 -21 6 -23
54 -20 22 1 27 -2 23 -13 -4 -11 6 -17 41 -22 44 -7 45 -8 22 -18 -14 -5 -34
-9 -45 -8 l-20 2 20 -17 c19 -16 18 -16 -17 -10 -39 7 -88 -1 -88 -14 0 -11
60 -31 71 -24 5 3 17 0 26 -5 10 -6 14 -11 8 -11 -79 -6 -120 -11 -123 -15 -3
-3 10 -11 29 -19 19 -9 32 -16 29 -16 -20 -5 -120 -12 -196 -13 -90 -1 -90 -2
-72 -21 26 -28 22 -44 -9 -48 -21 -2 -27 -8 -25 -22 3 -15 -1 -17 -22 -12 -19
5 -26 3 -26 -9 0 -12 -12 -15 -54 -15 -30 0 -58 4 -61 10 -3 5 -15 10 -25 10
-11 0 -25 6 -32 14 -11 11 -16 11 -36 -2 -17 -11 -26 -12 -35 -3 -6 6 -31 10
-56 10 -39 -1 -41 -2 -17 -8 l29 -6 -37 -13 c-20 -7 -45 -11 -55 -7 -27 8 -35
34 -13 42 29 10 51 34 45 49 -3 8 1 14 8 14 9 0 6 5 -6 12 -19 11 -19 11 0 18
10 4 39 2 65 -3 25 -6 57 -10 73 -10 21 0 25 -3 16 -13 -15 -18 10 -56 33 -48
10 3 18 1 18 -5 0 -6 -4 -11 -10 -11 -5 0 -10 -4 -10 -10 0 -5 15 -10 34 -10
28 0 35 4 41 27 5 20 2 31 -10 39 -15 11 -15 13 2 17 12 3 9 5 -9 6 -15 0 -30
6 -34 12 -6 11 88 6 141 -7 16 -4 17 -3 5 5 -8 6 -32 11 -52 11 -30 0 -38 4
-38 19 0 14 10 20 43 26 33 5 38 9 22 14 -19 8 -19 8 0 19 32 18 5 37 -34 24
-22 -8 -31 -7 -34 1 -2 8 -12 6 -30 -6 -32 -21 -47 -22 -47 -3 0 11 -18 14
-76 14 -41 1 -88 3 -104 7 -32 7 -51 -14 -43 -46 3 -11 0 -19 -6 -19 -6 0 -11
7 -11 16 0 13 -3 14 -14 5 -8 -7 -25 -9 -40 -5 -16 4 -26 2 -26 -5 0 -6 -13
-11 -30 -11 -28 0 -30 -2 -30 -40 0 -22 -4 -40 -10 -40 -5 0 -10 7 -10 15 0
19 -14 19 -34 0 -17 -17 -44 -19 -66 -5 -13 9 -13 12 4 25 10 7 16 19 14 26
-3 9 -13 3 -29 -15 -41 -48 -137 -106 -174 -106 -18 0 -35 -4 -37 -9 -2 -6
-18 -6 -38 -2 -24 5 -39 15 -50 36 -8 17 -19 33 -25 37 -13 10 14 19 50 17 53
-3 65 1 65 19 0 10 12 23 28 29 l27 11 -27 1 c-16 1 -28 5 -28 11 0 25 -50 21
-110 -9 -49 -25 -66 -29 -77 -20 -10 9 -17 9 -25 1 -20 -20 -28 -13 -28 23 0
38 0 38 72 19 21 -6 31 11 24 41 -6 24 -7 25 -46 9 -28 -12 -44 -13 -57 -5
-14 8 -15 10 -3 11 13 0 13 1 0 10 -11 7 3 10 48 10 34 0 62 4 62 10 0 6 8 10
17 10 14 0 15 2 4 12 -8 9 -40 13 -93 12 -73 -1 -78 0 -57 13 22 13 19 14 -31
9 -30 -3 -65 -6 -77 -6 -13 0 -23 -4 -23 -10 0 -5 10 -11 23 -11 12 -1 -3 -5
-33 -10 -30 -5 -80 -6 -111 -3 -37 4 -59 2 -63 -5 -8 -13 -26 -15 -26 -3 0 10
94 42 119 41 13 0 12 -2 -4 -10 -17 -8 -17 -9 5 -4 14 2 28 5 33 5 4 0 7 4 7
9 0 14 -50 23 -64 12 -7 -6 -21 -10 -31 -9 -11 0 -38 -2 -60 -5 -22 -4 -31 -4
-20 -1 32 10 47 26 35 38 -17 17 -12 24 17 28 32 3 44 34 16 41 -10 3 5 6 32
7 41 2 45 3 25 10 -14 4 -18 9 -10 9 13 1 13 3 1 10 -12 8 -9 11 14 17 26 7
27 8 10 20 -11 8 -43 14 -72 14 -56 0 -65 7 -33 28 11 7 20 19 20 27 0 8 4 15
10 15 5 0 7 -7 4 -15 -5 -13 -2 -14 21 -5 34 13 66 14 46 1 -8 -5 -9 -11 -3
-15 6 -3 13 -2 17 4 3 5 17 7 30 4 12 -3 26 -1 29 5 4 5 13 8 21 4 22 -8 8 27
-18 49 -20 16 -20 16 17 16 27 0 35 -3 27 -11 -7 -7 -5 -14 7 -24 12 -11 14
-16 5 -19 -27 -12 -11 -19 34 -16 27 1 74 2 106 2 51 0 62 4 88 29 31 31 38
61 15 61 -7 0 -20 -9 -27 -21 -13 -18 -16 -19 -34 -5 -18 14 -18 15 -2 16 11
0 17 8 17 25 0 23 -3 25 -50 25 -44 0 -50 -3 -56 -25 -3 -13 -15 -27 -25 -30
-10 -4 -19 -14 -19 -23 0 -13 -3 -13 -12 -4 -10 10 -7 17 16 35 32 26 35 73 4
71 -10 -1 -15 2 -12 7 3 5 -2 9 -11 9 -9 0 -14 3 -11 8 2 4 25 6 51 4 41 -4
44 -5 28 -18 -25 -19 -5 -17 40 5 37 17 37 18 18 35 -11 10 -26 16 -33 13 -8
-3 -5 -6 6 -6 15 -1 17 -4 9 -12 -8 -8 -17 -8 -32 0 -12 7 -37 9 -61 5 -35 -6
-39 -4 -34 10 5 13 0 16 -24 16 -21 0 -32 -5 -34 -17 -3 -15 -6 -15 -24 5 -19
20 -31 23 -80 21 -33 -1 -71 3 -85 9 -35 14 -190 -5 -183 -23 3 -7 -5 -15 -18
-19 -33 -8 -47 -6 -23 4 14 6 0 9 -47 9 -62 1 -94 13 -66 24 7 3 3 6 -9 6 -13
1 -23 6 -23 12 0 7 7 8 17 4 41 -17 54 -16 80 1 22 15 53 20 141 24 132 6 153
24 29 26 -45 1 -106 5 -134 9 -33 5 -53 4 -53 -2 0 -11 -44 -33 -65 -33 -8 0
-15 8 -16 18 0 14 -3 13 -16 -5 -19 -27 -38 -29 -52 -5 -9 15 -10 15 -11 -5 0
-22 -3 -23 -82 -22 -68 0 -78 2 -55 11 30 11 28 28 -4 28 -10 0 -19 4 -19 9 0
12 56 25 70 16 5 -3 10 -1 10 4 0 12 -39 13 -120 1 -36 -5 -45 -8 -25 -9 27
-2 26 -4 -17 -17 -37 -11 -48 -19 -48 -35 0 -14 -5 -19 -17 -17 -11 2 -17 11
-15 21 2 13 -5 17 -31 17 -19 0 -48 5 -65 11 -28 10 -30 13 -17 26 8 8 19 11
25 8 16 -10 12 5 -16 53 -14 24 -24 52 -21 63 5 18 -5 19 -334 19 l-339 0 0
-695z"/>
<path d="M690 1374 c0 -10 6 -14 15 -10 8 3 15 1 15 -4 0 -5 18 -13 40 -16 22
-4 40 -10 40 -14 0 -5 -8 -6 -19 -3 -10 3 -22 0 -25 -6 -4 -6 0 -11 9 -11 9 0
13 -4 10 -10 -10 -16 12 -12 47 10 22 13 51 20 86 20 43 0 52 3 52 18 0 15 10
18 56 20 31 1 64 7 73 12 10 6 -56 9 -191 10 -185 0 -208 -2 -208 -16z"/>
<path d="M2053 913 c-9 -3 -10 -10 -3 -24 8 -14 5 -27 -12 -54 -25 -37 -38
-44 -38 -20 0 11 -11 15 -40 15 -22 0 -40 4 -40 10 0 5 -17 12 -37 16 -21 4
-42 12 -46 18 -5 6 -5 1 -2 -11 4 -15 2 -23 -5 -23 -7 0 -14 9 -17 20 -3 11
-10 20 -15 20 -6 0 -7 -7 -4 -16 3 -9 -1 -25 -9 -37 -8 -12 -15 -34 -15 -49 0
-41 30 -53 133 -50 54 2 87 -1 87 -8 0 -5 6 -10 14 -10 7 0 19 -7 27 -16 9
-11 22 -14 43 -10 27 6 28 5 13 -12 -12 -13 -13 -21 -6 -32 9 -12 10 -12 5 3
-4 14 1 17 24 17 17 0 30 4 30 9 0 5 27 8 60 7 64 -4 98 13 64 32 -15 8 -14
11 5 24 11 8 18 17 15 20 -3 4 4 9 15 13 12 3 21 10 21 15 0 5 19 11 43 13 24
2 14 4 -26 3 -43 0 -63 -3 -55 -9 9 -6 7 -7 -5 -3 -10 3 -23 6 -29 6 -6 0 -7
8 -3 17 4 12 -4 8 -23 -10 -17 -17 -32 -24 -36 -18 -4 5 -21 7 -40 4 -19 -3
-36 -1 -40 6 -5 7 1 11 14 11 12 0 18 5 15 10 -3 6 -18 10 -32 10 -18 0 -24
-4 -20 -15 10 -23 -9 -26 -29 -4 -15 17 -16 22 -4 29 7 4 13 23 13 42 0 18 5
36 11 40 12 9 -2 9 -21 1z"/>
</g>
</svg>
